<?xml version="1.0" encoding="utf-8"?>
<!-- Generator: Adobe Illustrator 24.1.0, SVG Export Plug-In . SVG Version: 6.00 Build 0)  -->
<svg version="1.1" id="Capa_1" xmlns="http://www.w3.org/2000/svg" xmlns:xlink="http://www.w3.org/1999/xlink" x="0px" y="0px"
	 viewBox="0 0 722.1 393.7" style="enable-background:new 0 0 722.1 393.7;" xml:space="preserve">
<style type="text/css">
	.st0{enable-background:new    ;}
	.st1{fill:#252525;}
	.st2{fill:none;stroke:#010202;stroke-width:0.8513;stroke-miterlimit:10;}
	.st3{fill:#010202;}
	.st4{fill:#874695;}
	.st5{fill:#824896;}
	.st6{fill:#020304;}
</style>
<g id="Capa_5">
	<g>
		<g class="st0">
			<path class="st1" d="M265.3,256.5c0,16.5-13.5,69.8-13.5,102.1c0,15.3,3.2,23.5,4,25.6c0,0.1,0.1,0.1,0.2,0.1
				c0.1,0,0.1,0,0.2-0.1c1.4-3.9,6-3.2,5.1-0.5c-0.8,2.9-2,4.6-6,4.6c-9.3,0-16.7-16.1-16.7-44.3c0-43.3,15.7-106.3,9-106.3
				c-9.9,0-57.5,44.8-68.4,150.8c-0.4,5.5-7.4,5-8.9,0.8c-9.7-25.5-10.2-112.5-5.6-149.5c0.8-6.5,19-4.4,18.3,2.6
				c-6,57.1-5.8,98.5-4.9,122.4c7.6-61.9,44.6-133.4,69.8-133.4C259.6,231.3,265.3,239.3,265.3,256.5z"/>
			<path class="st1" d="M341.1,328.7c-3.4,18.3-8.3,48.8-23.1,48.8c-10.9,0-16.9-11.2-19.3-25.9c-4.3,16.8-6.5,22.4-13.9,22.4
				c-6.9,0-18.5-8.8-18.5-31.8c0-13.1,3.4-31.1,22.2-31.1c4,0,7.8,1.3,11,3.7c0.2-1.2,0.5-2.3,0.7-3.5c1.2-5.4,16.2-2.5,16,1.3
				c-0.2,3.7-1.9,18.1-1.9,28.8c0,22,3.5,31.4,5.8,31.4c5.5,0,13.1-22.9,17.3-45.2C338,326,341.6,326.5,341.1,328.7z M298.4,322.6
				c-1.6-2.5-4.6-5.1-5.8-5.1c-2.7,0-9.7,8.3-9.7,31.5c0,12,2.3,20,3.4,20c2.7,0,9.7-22,11.4-38.3c0.1-1.9,0.2-3.7,0.4-5.6
				c0-0.2,0-0.4,0-0.6C298.3,323.9,298.4,323.2,298.4,322.6z"/>
			<path class="st1" d="M373.7,328.7c-3.4,18.3-7.7,48.4-22.4,48.4c-21.6,0-23.1-39.8-18.5-65.6c0.9-5.5,16.5-3.3,16.2,0.5
				c-0.2,3.7-2.1,18.9-2.1,29.7c0,22,3.6,31.1,6.1,31.1c5.5,0,13-22.5,17.1-44.7C370.5,326,374.1,326.5,373.7,328.7z M334.6,296.7
				c0-4.2,3.6-7.6,8.1-7.6c4.4,0,8.1,3.4,8.1,7.6s-3.6,7.6-8.1,7.6C338.2,304.3,334.6,300.9,334.6,296.7z"/>
			<path class="st1" d="M417.1,327.7c-2.7,28.8-12.5,63.7-27.3,63.7c-9.9,0-26.2-8.8-26.2-71.9c0-35,17.9-89.1,42-89.1
				c7.5,0,13.9,4.2,13.9,20.9c0,25.2-20,54-38.8,61.1c-0.5,6.2-0.8,12.7-0.8,19.5c0,41.9,8.9,55.2,11.1,55.2
				c6.8,0,17.9-25.6,22.1-59.3C413.4,324.5,417.2,326,417.1,327.7z M381.1,307.9c20.4-9.8,33.4-39,33.4-54.9
				c0-8.1-2.3-17.4-5.6-17.4C402.8,235.5,385.8,262.7,381.1,307.9z"/>
			<path class="st1" d="M562.7,328.5c-4.9,17.9-11.3,49.3-32.6,49.3c-15.3,0-25.2-15.8-29.7-26.3c0.6,19,1.6,29.7,1.5,31.7
				c-0.4,5.5-7.2,6.8-9.1,2.7c-8.2-17.5-10.4-113.1-5.8-150.1c0.8-6.5,19.2-5,18.5,2c-4,38.3-5.3,69.4-5.3,92.9
				c10.5-11.6,31.1-47.3,37.4-77.3c0.7-3,8.3-0.6,7.4,3.4c-0.8,3.6-11.9,50.2-40.6,76.4c4.8,7.4,12.8,40.5,27.3,40.5
				c17.2,0,26.3-40.8,27-45.3C559.1,325.8,563.3,326.3,562.7,328.5z"/>
			<path class="st1" d="M595.4,328.7c-3.4,18.3-7.7,48.4-22.4,48.4c-21.6,0-23.1-39.8-18.5-65.6c0.9-5.5,16.5-3.3,16.2,0.5
				s-2.1,18.9-2.1,29.7c0,22,3.6,31.1,6.1,31.1c5.5,0,13-22.5,17.1-44.7C592.3,326,595.9,326.5,595.4,328.7z M556.4,296.7
				c0-4.2,3.6-7.6,8.1-7.6c4.4,0,8.1,3.4,8.1,7.6s-3.6,7.6-8.1,7.6C560,304.3,556.4,300.9,556.4,296.7z"/>
			<path class="st1" d="M654.7,328c-4.6,21.4-9,49.5-24.2,49.5c-17.1,0-17.5-23.4-17.5-32.1c0-8.8,0.6-18.7,0.1-18.7
				c-0.5,0-9.5,4.6-15.9,4.6c-6.4,0-16.4-2.8-16.4-19.4c0-9.1,5.3-19.3,12.4-19.3c5.4,0,7.8,4,7.8,11.7c0,4.3-1.5,14.4-3.5,20.4
				c0.2,0.1,0.5,0.2,0.8,0.2c5.1,0,13.5-6.8,20-6.8c6.4,0,10.9,3.3,10.9,13.3c0,10-2.5,41,3.9,41c6.4,0,16-35.3,17.8-45.4
				C651.2,324.7,655.1,326,654.7,328z M595.8,299.8c-0.8-2.5-1.6,9.1-0.6,17.4C596.2,310.9,596.7,302.6,595.8,299.8z"/>
			<path class="st1" d="M719,328.7c-3.4,18.3-8.3,48.8-23.1,48.8c-10.9,0-16.9-11.2-19.3-25.9c-4.3,16.8-6.5,22.4-13.9,22.4
				c-6.9,0-18.5-8.8-18.5-31.8c0-13.1,3.4-31.1,22.2-31.1c4,0,7.8,1.3,11,3.7c0.2-1.2,0.5-2.3,0.7-3.5c1.2-5.4,16.2-2.5,16,1.3
				c-0.2,3.7-1.9,18.1-1.9,28.8c0,22,3.5,31.4,5.8,31.4c5.5,0,13.1-22.9,17.3-45.2C715.7,326,719.3,326.5,719,328.7z M676.2,322.6
				c-1.6-2.5-4.6-5.1-5.8-5.1c-2.7,0-9.7,8.3-9.7,31.5c0,12,2.3,20,3.4,20c2.7,0,9.7-22,11.4-38.3c0.1-1.9,0.2-3.7,0.4-5.6
				c0-0.2,0-0.4,0-0.6C676.1,323.9,676.2,323.2,676.2,322.6z"/>
		</g>
		<g>
			<path class="st2" d="M186.3,364.8c-15.9,9.4-34.3,2.8-48.4-6.3c-14-4.1-26.3-11.6-39.5-18.2c-8.8-3.3-18.4-4.1-28.1-4.1
				c-0.9,0-1.8,0.8-2.6,1.6c-10.5,17.4-30.7,22.3-49.1,28.6c0.5,0.7,7.4-1.6,0,0c0.5,0.7,1,1.4,1.5,2.1"/>
			<g>
				<path class="st3" d="M30.5,257.5c5.9-2.5,12.4-3.6,18.8-3c3.2,0.3,6.4,1,9.4,2l9.1,2.9l18.1,5.8c6,1.9,12.1,3.7,18.2,5.7
					c3,1,6,2,9,3.1s6,2.4,8.8,3.9c5.6,3.1,10.7,7,15.6,11c4.9,4.1,9.9,7.9,15,11.7c2.6,1.9,5.1,3.8,7.6,5.7c1.3,1,2.5,1.9,3.8,2.9
					c1.3,0.9,2.4,2.1,3.5,3.2l0,0c-1.1-1.1-2.3-2.2-3.6-3.1s-2.6-1.9-3.9-2.8l-7.8-5.5c-5.2-3.6-10.4-7.4-15.3-11.4
					c-4.9-4-10-7.7-15.6-10.8c-2.8-1.5-5.6-2.8-8.6-3.8c-3-1.1-6-2.1-9-3.1c-6-2-12.1-3.8-18.2-5.7l-18.1-5.8l-9.1-2.9
					c-3-1-6-1.7-9.2-2c-6.2-0.6-12.6,0.4-18.4,2.7L30.5,257.5z"/>
			</g>
			<path class="st2" d="M31.6,258.3c-0.1-0.2-0.2-0.5-0.3-0.7c-0.3-0.8-0.6-1.6-1-2.5c-4.4-11.3-8.5-23.3-14.2-34.6
				c-0.9-3.3-2.7-7.4-3.5-10.7c-6.2-15.7-19.4-32.3-7-48.8c6.1-8.3,14.9-13.2,24.5-17.4c9-3.6,18.8-3.7,28.3-1.6
				c3.5,0.8,7,1.8,10.3,3.2c14.9,7.5,27.2,17.4,42.1,24.8c8.8,3.3,16.7,7.4,24.5,12.3c2.7,2.5,6.2,4.2,8.9,7.5
				c14.9,16.5,30.2,30.8,45.3,45.4"/>
			<path class="st2" d="M222.8,270.8c-0.2-0.2-0.3-0.6-0.4-0.9"/>
			<g>
				<path class="st3" d="M21.6,208.9c2.1,2.4,4.4,4.7,7.1,6.4c1.3,0.9,2.7,1.7,4.2,2.3c0.7,0.3,1.5,0.6,2.3,0.8l2.3,0.8
					c6.2,2.1,12.3,4.3,18.3,6.6c12.1,4.8,23.9,10.4,35.2,16.9l0,0l0,0c4.6,3.4,8.7,7.4,13.2,10.8l0,0c7.3,4.5,14.5,9.2,21.6,14
					c7.1,4.9,14,9.9,20.8,15.2c3.4,2.6,6.7,5.4,10,8.1c1.6,1.4,3.3,2.8,5,4c1.7,1.3,3.6,2.3,5.4,3.3c3.8,1.8,8,2.9,12.2,3.1
					c2.1,0.1,4.2,0,6.4-0.3l1.6-0.3c0.5-0.1,1-0.3,1.6-0.4s1-0.3,1.5-0.4c0.5-0.2,1-0.3,1.5-0.5l0.1,0.1c-2,0.8-4,1.6-6.1,2
					s-4.3,0.7-6.5,0.6c-4.4-0.1-8.6-1.3-12.6-3.2c-1.9-1-3.9-2-5.6-3.3c-1.8-1.3-3.4-2.7-5-4.1c-3.3-2.7-6.6-5.4-10-8.1
					c-6.8-5.3-13.7-10.3-20.8-15.2c-7.1-4.8-14.3-9.5-21.6-14l0,0l0,0c-4.6-3.4-8.7-7.3-13.2-10.7h0.1c-5.6-3.3-11.3-6.3-17.2-9.1
					c-5.8-2.8-11.8-5.4-17.8-7.8c-6-2.4-12.1-4.6-18.3-6.7L35,219c-0.8-0.3-1.5-0.5-2.3-0.9c-1.5-0.7-3-1.5-4.3-2.4
					c-2.7-1.9-5.1-4.1-7.3-6.6L21.6,208.9z"/>
			</g>
			<path class="st2" d="M33.2,323.7c12.1,6.3,25.5,10.4,39.3,12"/>
			<path class="st2" d="M30.2,255.1c-0.5,0.6-1.2,1.1-1.9,1.6c-1.9,1.4-3.7,2.7-5.6,4.1c-2,1.5-4.3,2.8-5.8,4.8
				c-3.1,4-6.3,7.3-7.8,12.2c-3,9.8-0.5,20.4-1.8,30.3c-1.4,11.2-1.4,23-1.3,34.3c0.1,18.1,3.3,37,15.1,51.3"/>
			<path class="st2" d="M58.4,142.2c3.6-8.7-4-18.1-5.6-26.7c-2.2-11.2,4.7-19.5,14.1-25.8c2.6-1.7,5.2-3.5,7.8-5.2
				c7.6-5.1,13.4-7.8,23-7.2c8,0.5,17.1,2.5,23.1,7.5c4.8,4.1,10,7.6,15.6,10.7c4.9,2.7,9.4,3.9,13.9,7.2c4.6,3.3,8.4,6.7,13.5,9.3
				c5.5,2.8,10.8,5.9,15.8,9.5c15.8,11.4,25.8,27.3,38.4,41.2c6,6.5,11.5,14.5,18.5,19.8c9.6,7.3,13.3,17.2,14.5,28.5"/>
			<g>
				<path class="st4" d="M253.9,222.5c-0.1,3-1.1,4.7-3.1,7c-4.2,5.2-9.2,10-14.6,14.2c-3,2.3-6.5,4.5-10.3,4.2
					c-3.6-0.2-6.6-2.5-9.3-4.9c-6.5-5.5-12.7-11.4-18.4-17.6c-5.4-5.6-11.6-10-15.4-16.9c-3.3-5.9-2.8-11.4-1.9-17.7
					c1.3-9.4,9.8-17.6,19.8-18.5c10.9-1,17.8,4.9,24.5,12c4.8,5.1,9.6,10.3,14.4,15.4c2.5,2.6,4.9,5.2,7.3,7.9
					c1,1.1,2.2,2.1,3.3,3.3c1,1.2,2.1,2.3,2.7,3.7C254,217.1,254.1,219.9,253.9,222.5z"/>
				<path class="st3" d="M254.6,222.6c0,1.2-0.2,2.5-0.7,3.6c-0.5,1.2-1.2,2.2-2,3.1c-1.5,1.8-3,3.6-4.6,5.4
					c-3.2,3.4-6.7,6.6-10.4,9.5c-1.9,1.4-3.9,2.8-6.2,3.7s-5,1.1-7.4,0.3s-4.4-2.2-6.2-3.7s-3.5-3.1-5.3-4.6
					c-3.5-3.1-6.8-6.4-10.1-9.8c-1.6-1.7-3.2-3.4-4.8-5.1c-1.6-1.7-3.3-3.2-5-4.8c-3.4-3.2-6.8-6.5-9.2-10.6c-1.2-2-2.1-4.3-2.6-6.6
					s-0.5-4.7-0.3-7.1c0.1-1.2,0.2-2.3,0.4-3.5c0.1-1.1,0.4-2.3,0.6-3.5c0.6-2.3,1.5-4.5,2.8-6.5c2.6-3.9,6.4-7.1,10.7-8.9
					c2.2-0.9,4.5-1.4,6.9-1.5c2.3-0.2,4.7,0,7,0.6c4.6,1.1,8.7,3.7,12.2,6.8s6.6,6.6,9.8,10l9.6,10.1l4.8,5.1l2.4,2.5l2.5,2.5
					c0.8,0.8,1.6,1.7,2.4,2.6c0.8,0.9,1.4,2.1,1.8,3.2C254.7,217.7,254.8,220.2,254.6,222.6z M253.2,222.5c0.2-2.3,0.1-4.6-0.5-6.7
					c-0.3-1.1-0.8-2-1.5-2.9s-1.5-1.8-2.3-2.6l-2.5-2.5l-2.4-2.6l-4.7-5.1l-9.5-10.3c-3.2-3.4-6.2-6.9-9.7-10.1
					c-3.4-3.1-7.4-5.7-11.9-6.8c-2.2-0.6-4.6-0.7-6.9-0.6c-2.3,0.1-4.6,0.6-6.7,1.5c-4.3,1.8-7.9,4.9-10.4,8.7
					c-1.3,1.9-2.2,4.1-2.7,6.3c-0.2,1.1-0.4,2.3-0.6,3.4c-0.1,1.1-0.3,2.3-0.4,3.5c-0.2,2.3-0.1,4.6,0.4,6.9
					c0.5,2.2,1.4,4.4,2.6,6.3c2.4,3.9,5.7,7.2,9.2,10.3c1.7,1.6,3.4,3.1,5.1,4.8c1.6,1.7,3.2,3.4,4.9,5c3.3,3.3,6.6,6.5,10.1,9.6
					c1.7,1.5,3.5,3.1,5.3,4.5s3.6,2.8,5.7,3.4c2.1,0.6,4.3,0.5,6.3-0.3c2.1-0.8,3.9-2.1,5.7-3.5c3.7-2.8,7.1-5.9,10.3-9.3
					c1.6-1.7,3.1-3.4,4.6-5.2c0.7-0.9,1.4-1.8,1.8-2.8C252.9,224.7,253.1,223.6,253.2,222.5z"/>
			</g>
			<g>
				<path class="st3" d="M197.2,243.2c1.9,0.5,3.6,1.7,5.4,2.5c1.8,0.8,3.8,1.2,5.7,1.5c3.9,0.6,7.9,0.3,11.7-1v0.1
					c-1.9,0.8-3.8,1.3-5.8,1.5s-4,0.2-6-0.1s-3.9-0.8-5.8-1.6C200.7,245.1,199.1,243.9,197.2,243.2L197.2,243.2z"/>
			</g>
			<path class="st2" d="M281.4,158.8c-0.6-3.7-1.1-7.4-1.7-11.1c-0.8-5.3-1.6-10.7-3.4-15.8c-3.1-8.9-9.3-16.6-15.1-24.1
				c-4.9-6.2-9.1-13-13.3-19.6s-10.8-12-15.5-18.3c-8.7-11.5-19.5-22.8-32.3-30.5c-6-3.6-12.9-7.8-20.1-8.5
				c-7.1-0.8-16.1,2.9-22.8,5.3c-6.5,2.3-13,5.4-17.4,10.5c-5.4,6.3-4.3,13.3-3.2,20.8c0.7,4.8,3,9.1,4.6,13.7
				c1.7,5.2,1.2,10.3,2.4,15.6c0.3,1.4-0.7,0.9-0.8,2.3"/>
			<path class="st2" d="M147.4,89.9c3.3,1.1,5.8,3.7,7.6,6.6s2.9,6,4.6,8.9c1.7,2.9,3.9,5.7,7.1,7.1"/>
			<g>
				<path class="st4" d="M279.2,164.4c-0.8,1.6-2.2,2.8-3.2,4.3c-0.9,1.2-2.2,1.9-3.3,2.9c-4.3,3.5-8.4,7-12.7,10.5
					c-2.9,2.4-4.6,3.5-8.5,1.6c-2-0.9-3.6-2.1-5.1-3.5c-4.6-3.6-8.9-7.2-13-11.4c-5.1-5.1-10.2-10.5-14.1-16.6s-6.5-13.1-5.9-20.2
					c0.5-7.2,4.5-14.2,11.2-17.5c7.7-3.7,17.3-1.8,24.5,2.5c7.2,4.4,12.6,11,17.7,17.4c2.5,3,4.9,6.1,7.4,9.1
					C279.1,149.7,283.3,156.8,279.2,164.4z"/>
				<path class="st3" d="M279.7,164.6c-0.5,1-1.3,1.9-2,2.7c-0.4,0.4-0.7,0.8-1,1.3c-0.1,0.2-0.3,0.4-0.5,0.7
					c-0.2,0.2-0.4,0.4-0.6,0.6c-0.8,0.8-1.7,1.4-2.6,2.1l-2.5,2.1l-10.1,8.3c-0.8,0.7-1.7,1.4-2.7,1.9c-1,0.6-2.2,0.8-3.3,0.6
					c-1.1-0.1-2.2-0.6-3.2-1.1s-1.9-1.1-2.8-1.7c-0.9-0.6-1.7-1.4-2.5-2.1l-2.5-2.1c-1.7-1.4-3.4-2.8-5-4.3
					c-3.3-2.9-6.3-6.1-9.3-9.3s-5.9-6.5-8.4-10c-2.5-3.6-4.7-7.4-6-11.6c-1.4-4.2-1.8-8.6-1.1-13c0.7-4.3,2.7-8.5,5.8-11.7
					c1.6-1.6,3.4-2.9,5.4-3.9c2-0.9,4.2-1.6,6.4-1.8c4.4-0.5,8.9,0.2,13,1.7c4.2,1.5,7.9,4,11.2,6.9c3.3,2.9,6.3,6.1,9.1,9.5
					l8.2,10.2c2.7,3.4,5.6,6.8,7.4,10.9c0.9,2,1.4,4.3,1.4,6.5C281.4,160.4,280.7,162.7,279.7,164.6z M278.8,164.2
					c1-1.9,1.6-3.9,1.6-6s-0.5-4.2-1.4-6.1c-1.7-3.9-4.5-7.3-7.3-10.6l-8.3-10.1c-2.8-3.4-5.6-6.6-8.9-9.4
					c-3.2-2.8-6.9-5.3-10.9-6.8s-8.4-2.3-12.6-1.8c-2.1,0.2-4.2,0.8-6.2,1.7c-1.9,0.9-3.7,2.2-5.2,3.7c-3,3-5,7.1-5.8,11.3
					c-0.8,4.3-0.4,8.7,0.9,12.8c1.3,4.1,3.4,8,5.9,11.6s5.4,6.9,8.4,10s6.1,6.3,9.3,9.1c1.6,1.4,3.3,2.8,5,4.2l2.6,2
					c0.9,0.7,1.7,1.4,2.5,2c0.9,0.6,1.8,1.2,2.8,1.6c1,0.4,2,0.9,3,1s2.1-0.1,3-0.6s1.7-1.2,2.6-1.9l10-8.4l2.5-2.1
					c0.8-0.7,1.7-1.4,2.5-2.1c0.2-0.2,0.4-0.4,0.5-0.6c0.2-0.2,0.3-0.4,0.5-0.6c0.3-0.4,0.7-0.9,1-1.3
					C277.6,165.9,278.3,165.1,278.8,164.2z"/>
			</g>
			<g>
				<path class="st3" d="M231.9,177.8c1.4,0.6,2.8,1.2,4.2,1.8s2.8,1.3,4.2,1.7c1.4,0.5,2.9,0.9,4.4,1.1c1.5,0.2,3,0.3,4.5,0.1v0.1
					c-1.5,0.5-3.1,0.6-4.6,0.4c-1.6-0.1-3.1-0.5-4.6-1s-2.9-1.2-4.2-1.9C234.5,179.4,233.2,178.6,231.9,177.8z"/>
			</g>
			<g>
				<path class="st3" d="M268.3,5.9c-6.1,2.1-12.4,3.4-18.1,6.1c-5.7,2.6-9.9,7.6-13.1,13c-1.6,2.7-2.9,5.6-4.1,8.6
					c-1.2,3-2.3,6-3.2,9c-2,6.1-3.4,12.3-4.6,18.6l0,0l0,0c-0.1,0.1-0.1,0.3-0.1,0.5l0,0c0-0.2,0-0.3,0.1-0.5l0,0
					c0.3-3.2,0.7-6.4,1.3-9.5c0.6-3.2,1.3-6.3,2.2-9.4c0.9-3.1,1.9-6.1,3.1-9.2c0.6-1.5,1.1-3,1.8-4.5s1.4-2.9,2.2-4.3
					c1.6-2.8,3.5-5.5,5.8-7.9c1.1-1.2,2.4-2.3,3.7-3.3c1.4-1,2.8-1.8,4.3-2.4c6-2.7,12.4-3.8,18.5-5.6L268.3,5.9z"/>
			</g>
			<g>
				<path class="st3" d="M301.2,76.4c2.1,2.9,4,5.9,6.6,8.4c2.5,2.5,5.3,4.7,8.1,7c5.6,4.5,10.8,9.5,15.5,14.9
					c4.6,5.5,9,11.4,11.6,18.2c1.3,3.3,2.6,6.6,4,9.9c1.4,3.3,2.9,6.5,4.5,9.7c3.1,6.4,6.4,12.8,9.6,19.1c3.3,6.4,6.3,12.9,9.6,19.2
					c3.3,6.3,6.9,12.5,11.1,18.2c4.1,5.8,8.9,11.2,14.1,16c-5.4-4.6-10.4-9.9-14.7-15.6c-4.3-5.7-8.1-11.8-11.6-18.1
					s-6.5-12.8-9.9-19c-3.3-6.3-6.7-12.6-9.9-19c-1.6-3.2-3.1-6.4-4.6-9.7s-2.8-6.6-4.1-9.9c-2.6-6.5-6.6-12.4-11.2-17.8
					c-2.3-2.7-4.7-5.3-7.2-7.8s-5.2-4.8-7.8-7.3c-2.6-2.4-5.2-4.9-7.6-7.7C305.1,82.4,303.3,79.3,301.2,76.4L301.2,76.4z"/>
			</g>
			<g>
				<path class="st5" d="M301.2,76.4c-2.3,0.7-4.7-0.1-6.7-1.5c-1.9-1.4-3.2-3.3-4.4-5.1c-6.4-9.6-11.8-19.7-16.2-30.2
					c-1.5-3.6-2.9-7.3-4.2-10.9c-0.9-2.5-2-5-2.9-7.6c-1-2.7-2.1-5.5-2.1-8.4c0-2.7,1.1-5.6,3.5-7.3c0,0,0-0.1,0.1,0
					c0.1,0,0.1-0.1,0.2-0.1c1.4-0.3,3.1,0.1,4.2,1.1c0.5,0.3,1,0.6,1.4,1s0.7,0.9,1.1,1.4c0.7,1,1.3,2,2,3.1c1.1,1.9,2.1,4,3.3,5.9
					c6.1,9.6,9.7,21.2,13.1,32c1.4,4.6,2.9,9.4,3.2,14.1C297.2,68.7,298.8,72.6,301.2,76.4z"/>
				<path class="st3" d="M301.5,76.3l-0.3,0.1c-1.7,0.5-3.6,0.2-5.2-0.5s-3-2-4.1-3.3c-1.1-1.4-2.1-2.9-3.1-4.3c-1-1.5-2-3-2.9-4.5
					c-3.8-6-7.2-12.3-10.2-18.7c-0.8-1.6-1.5-3.2-2.1-4.9l-2-5l-3.9-9.9l-1.9-5c-0.6-1.7-1.2-3.4-1.5-5.2s-0.3-3.8,0.3-5.6
					c0.6-1.8,1.7-3.5,3.3-4.6l-0.3,0.5c0-0.1,0-0.2,0.2-0.4c0.1-0.1,0.3-0.2,0.4-0.2s0.2,0,0.3,0c0.2,0.1,0.2,0.1,0.3,0.2l-0.4-0.2
					c-0.1,0-0.4,0.1-0.3,0.1c0,0,0.1-0.1,0.2-0.1c0.1-0.1,0.3-0.1,0.3-0.1h-0.1c1.7-0.3,3.4,0.1,4.8,1.2l-0.1-0.1
					c0.4,0.2,0.7,0.4,1.1,0.7c0.4,0.3,0.7,0.6,1,0.9l0.8,1c0.3,0.4,0.5,0.7,0.7,1c0.9,1.4,1.6,2.8,2.4,4.2s1.5,2.8,2.3,4.1
					c0.8,1.4,1.6,2.8,2.4,4.2c3,5.7,5.3,11.7,7.3,17.7c1,3,2,6.1,2.9,9.1c1,3,1.9,6.1,2.6,9.3c0.3,1.6,0.6,3.2,0.8,4.8
					c0.1,1.6,0.2,3.1,0.6,4.7c0.3,1.5,0.8,3,1.5,4.4c0.3,0.7,0.7,1.4,1,2.1l0.6,1C301.1,75.4,301.3,75.9,301.5,76.3z M301,76.4
					l-0.3-0.2c-0.3-0.2-0.4-0.2-0.6-0.7c-0.2-0.3-0.4-0.7-0.6-1.1c-0.4-0.7-0.8-1.4-1.1-2.2c-0.7-1.5-1.2-3-1.6-4.6
					s-0.5-3.2-0.7-4.8c-0.2-1.6-0.4-3.1-0.8-4.7c-0.7-3.1-1.6-6.1-2.6-9.1s-1.9-6.1-3-9.1c-2-6-4.3-12-7.3-17.5
					c-0.7-1.4-1.5-2.8-2.4-4.1c-0.9-1.4-1.6-2.8-2.4-4.2c-0.7-1.4-1.5-2.8-2.4-4.1c-0.2-0.3-0.4-0.7-0.6-0.9l-0.7-0.9
					c-0.4-0.6-1-0.9-1.7-1.3l0,0l0,0c-1-0.8-2.4-1.2-3.7-0.9h-0.1c0.1,0,0.4-0.1,0.3-0.1c0,0-0.1,0.1-0.2,0.1
					c-0.1,0.1-0.3,0.1-0.3,0.1L267.9,6c0,0,0,0,0.2,0.1c0.1,0,0.1,0,0.3,0c0.1,0,0.3-0.1,0.4-0.2c0.1-0.2,0.1-0.3,0.1-0.4L268.6,6
					c-1.3,0.9-2.3,2.4-2.8,3.9c-0.5,1.6-0.5,3.3-0.3,5c0.6,3.4,2.1,6.6,3.3,10l3.8,9.9l1.9,5c0.7,1.6,1.4,3.3,2.1,4.9
					c2.9,6.5,6.1,12.8,9.8,18.8c0.9,1.5,1.8,3,2.8,4.5s1.9,3,3,4.4s2.4,2.6,4,3.4C297.6,76.5,299.4,76.9,301,76.4z"/>
			</g>
			<g>
				<path class="st3" d="M268.6,5.2c0.1,0.2,0.2,0.4,0.2,0.5s0,0.2,0,0.2l0,0c0,0-0.1-0.1-0.2-0.1L268,5.3c-0.2-0.2-0.1-0.4,0.1-0.5
					c0.1,0,0.2,0,0.2,0.1C268.4,4.9,268.4,5.1,268.6,5.2z"/>
			</g>
			<g>
				<path class="st5" d="M222.1,279.7c-3.7,7.6-10,14.2-17.6,18.5c-2.6,1.4-5.4,2.6-8.2,2.5c-1.5-0.1-3-0.5-4.4-1.2
					c-2.2-1-4.2-2.5-6.1-4.1c-5.4-4.4-10.8-8.7-16.2-13.1c-2.5-1.9-4.8-3.9-7-6.1c-9.5-9.9-12.4-24.8-7.3-37.1
					c1-2.5,2.5-4.9,4.7-6.5c2.7-1.9,6.3-2.3,9.7-2.2c6.4,0.2,14.3,1.8,19.8,4.9c2.9,2.7,5.7,5.4,8.6,8.3
					c7.8,7.7,15.6,15.5,23.3,24.1c0.6,0.5,0.8,1.5,1,2.2l0.1,0.1C224.7,272.6,223.6,276.5,222.1,279.7z"/>
				<path class="st3" d="M222.1,279.7c-2.8,5.9-7,11-12.1,15c-2.6,2-5.3,3.8-8.3,5.1c-1.5,0.6-3.1,1.1-4.8,1.2c-1.7,0-3.3-0.4-4.8-1
					c-3.1-1.3-5.6-3.5-8.1-5.5l-7.6-6.1l-7.6-6.1c-2.5-2-5.1-4.1-7.3-6.5c-4.4-4.9-7.4-11-8.6-17.4c-1.2-6.4-0.7-13.2,1.8-19.3
					c0.6-1.5,1.4-3,2.4-4.4s2.3-2.5,3.8-3.3c3.1-1.6,6.5-1.7,9.8-1.5s6.5,0.6,9.7,1.4c3.2,0.8,6.4,1.8,9.3,3.4h0.1l0.1,0.1l8.2,7.9
					c2.7,2.6,5.4,5.3,8.1,8s5.3,5.4,7.9,8.2c2.6,2.8,5.1,5.6,7.6,8.4l-0.1-0.1c0.5,0.4,0.7,0.9,0.9,1.3s0.3,0.9,0.4,1.3l-0.2-0.3
					l0.1,0.1l0,0l0,0c0.6,0.7,1,1.6,1.2,2.6c0.2,0.9,0.2,1.9,0.1,2.8c-0.3,1.8-0.9,3.5-1.7,5L222.1,279.7z M221.7,279.6
					c0.7-1.5,1.3-3.2,1.4-4.8c0.2-1.6-0.1-3.3-1.2-4.4l0,0l-0.1-0.1l-0.1-0.1l-0.1-0.2c-0.1-0.4-0.2-0.8-0.4-1.1
					c-0.1-0.3-0.3-0.6-0.5-0.8l0,0h-0.1c-5.1-5.5-10.4-10.9-15.7-16.3c-2.6-2.7-5.3-5.4-8-8l-8.1-7.9l0.1,0.1
					c-2.7-1.6-5.8-2.6-8.9-3.4c-3.1-0.8-6.3-1.3-9.5-1.4c-3.2-0.2-6.4-0.1-9.2,1.3c-1.4,0.7-2.6,1.7-3.6,2.9s-1.7,2.6-2.3,4.1
					c-2.4,5.9-3,12.6-1.8,18.8c1.1,6.3,4,12.3,8.3,17.1c2.1,2.4,4.6,4.5,7.1,6.5l7.5,6.1l7.5,6.1c2.5,2,4.9,4.2,7.9,5.5
					c1.4,0.6,3,1,4.6,1s3.1-0.5,4.6-1.1c3-1.2,5.7-3,8.3-5c5.1-4,9.4-9,12.3-14.8V279.6z"/>
			</g>
			<g>
				<path class="st4" d="M200.2,355.2c-3,4.4-6.9,8.6-12.1,9.8c-0.9,0.2-1.9,0.3-2.7,0.3c-6.2-0.1-11.5-4.8-16.5-7.9
					c-3.4-2-7.4-3.8-10.4-6.3c-2.6-2.1-5.6-3.4-7.6-5.9c-4.4-5.2-4.9-13.2-4.5-19.6c0.1-2.3,0.4-4.8,1.4-6.9
					c3.3-7.1,12.1-9.4,19.3-6.3c8,3.6,15.6,6.7,22.6,11.9c3.9,3,7.5,6.3,10.6,10c1.5,1.8,3,3.7,3.7,5.8
					C205.8,345.2,203.3,350.8,200.2,355.2z"/>
				<path class="st6" d="M200.6,355.5c-2,3-4.3,5.9-7.4,8c-1.5,1-3.3,1.8-5.1,2.2c-1.8,0.4-3.8,0.4-5.6-0.1
					c-3.7-0.8-6.9-2.9-9.8-4.9c-1.5-1-3-2-4.5-3c-1.5-0.9-3.1-1.7-4.7-2.6s-3.1-1.8-4.6-3c-0.7-0.6-1.4-1.1-2.1-1.6
					c-0.7-0.5-1.5-1-2.2-1.5c-1.5-1-3-2.1-4.2-3.6s-2.1-3.1-2.7-4.8c-1.3-3.5-1.8-7.1-1.8-10.8c0-1.8,0.1-3.6,0.2-5.4
					c0.1-1.8,0.5-3.7,1.2-5.4c0.8-1.7,1.8-3.3,3.2-4.5c1.4-1.3,3-2.2,4.7-2.9c3.5-1.3,7.4-1.3,10.9-0.1l1.3,0.5l1.2,0.5l2.5,1.1
					c1.6,0.7,3.3,1.5,4.9,2.2c3.3,1.5,6.5,3.2,9.5,5.1c1.5,1,3,2,4.5,3c1.4,1.1,2.8,2.3,4.2,3.5c2.7,2.4,5.2,5,7.4,7.8
					c1.1,1.4,2.2,2.9,2.8,4.7c0.6,1.7,0.7,3.6,0.5,5.4s-0.8,3.5-1.6,5.2C202.4,352.3,201.6,353.9,200.6,355.5z M199.9,355
					c1-1.5,2.1-2.9,2.8-4.5c0.8-1.6,1.3-3.3,1.6-5.1c0.3-1.8,0.1-3.6-0.5-5.2c-0.6-1.7-1.6-3.1-2.7-4.5c-2.2-2.8-4.8-5.4-7.4-7.7
					c-1.4-1.2-2.7-2.3-4.2-3.4c-1.4-1.1-2.9-2-4.4-3c-3.1-1.9-6.3-3.5-9.5-5c-1.6-0.8-3.3-1.5-4.9-2.2l-2.5-1.1l-1.2-0.5l-1.2-0.5
					c-3.3-1.1-7-1.1-10.3,0.1c-1.6,0.6-3.1,1.5-4.4,2.7c-1.3,1.2-2.2,2.6-2.9,4.2s-1,3.3-1.1,5.1c-0.1,1.8-0.2,3.6-0.1,5.3
					c0.1,3.5,0.6,7.1,1.8,10.4c0.6,1.6,1.5,3.1,2.6,4.5s2.5,2.4,3.9,3.4c0.7,0.5,1.5,1,2.3,1.5s1.5,1.1,2.2,1.6
					c1.4,1.1,2.9,1.9,4.5,2.8s3.2,1.7,4.7,2.6c1.6,0.9,3.1,2,4.5,3c3,2,6,3.9,9.3,4.7c1.7,0.4,3.4,0.5,5.1,0.1c1.7-0.3,3.3-1,4.8-2
					C195.5,360.6,197.8,357.9,199.9,355z"/>
			</g>
		</g>
	</g>
</g>
</svg>
